PathFileType	4	(X/Y/Z)	C:/Users/opensim2020/Desktop/walking_exp_matlab/subject03_walking12_straight_02.trc	
DataRate	CameraRate	NumFrames	NumMarkers	Units	OrigDataRate	OrigDataStartFrame	OrigNumFrames	
100.00	100.00	7	48	mm	100.00	1124	187	
Frame#	Time	LFHD			RFHD			LBHD			RBHD			C7			T10			CLAV			STRN			RBAK			LSHO			LUPA			LELB			LFRM			LWRA			LWRB			LFIN			RSHO			RUPA			RELB			RFRM			RWRA			RWRB			RFIN			LASI			RASI			LPSI			RPSI			LTHI			LKNE			LTIB			LANK			LHEE			LTOE			RTHI			RKNE			RTIB			RANK			RHEE			RTOE			*39			*40			*41			*42			*43			*44			*45			*46			*47			
		X1	Y1	Z1	X2	Y2	Z2	X3	Y3	Z3	X4	Y4	Z4	X5	Y5	Z5	X6	Y6	Z6	X7	Y7	Z7	X8	Y8	Z8	X9	Y9	Z9	X10	Y10	Z10	X11	Y11	Z11	X12	Y12	Z12	X13	Y13	Z13	X14	Y14	Z14	X15	Y15	Z15	X16	Y16	Z16	X17	Y17	Z17	X18	Y18	Z18	X19	Y19	Z19	X20	Y20	Z20	X21	Y21	Z21	X22	Y22	Z22	X23	Y23	Z23	X24	Y24	Z24	X25	Y25	Z25	X26	Y26	Z26	X27	Y27	Z27	X28	Y28	Z28	X29	Y29	Z29	X30	Y30	Z30	X31	Y31	Z31	X32	Y32	Z32	X33	Y33	Z33	X34	Y34	Z34	X35	Y35	Z35	X36	Y36	Z36	X37	Y37	Z37	X38	Y38	Z38	X39	Y39	Z39	X40	Y40	Z40	X41	Y41	Z41	X42	Y42	Z42	X43	Y43	Z43	X44	Y44	Z44	X45	Y45	Z45	X46	Y46	Z46	X47	Y47	Z47	X48	Y48	Z48	

24	0.230	1461.59656	1067.03418	1597.42224	1330.14954	1087.57971	1599.55078	1477.52808	1192.63550	1548.89063	1346.99646	1207.66467	1550.53845	1425.70398	1226.33093	1389.70667	1435.33008	1262.36804	1078.17114	1410.62561	1104.60986	1312.86279	1420.44788	1059.87244	1147.98877	1349.72961	1292.15747	1210.36316	1567.69983	1131.58252	1357.55530	1657.91589	1086.77759	1182.27734	1681.26355	1032.58398	1076.26294	1674.44849	933.66394	995.62195	1635.71753	844.33557	923.92639	1686.19678	860.34338	910.26538	1675.58740	789.03674	871.08154	1259.50256	1178.10181	1332.61926	1192.59668	1213.44690	1112.00916	1178.59668	1213.62134	998.82410	1175.20349	1218.66638	861.59973	1204.22217	1198.37329	760.67517	1167.36255	1239.50415	762.39929	1181.52124	1237.39600	686.42914	1551.63513	1098.35571	913.11676	1311.95398	1094.50317	915.12781	1493.68311	1259.53137	937.14862	1346.74341	1257.16357	937.92798	1600.50684	1213.56665	626.74561	1577.87634	1262.25391	451.90305	1584.01160	1401.06470	303.67175	1551.31946	1522.23950	128.92531	1515.41846	1574.42249	116.44680	1523.33191	1403.68750	33.58809	1268.63660	1064.25220	630.60309	1317.13123	983.42468	477.57867	1318.16772	970.96033	283.18271	1366.69324	935.07300	71.92175	1422.68469	971.29163	36.81897	1380.23401	793.44769	49.92116	1423.88623	1158.46289	1654.39075																								 
25	0.240	1461.92712	1053.65479	1598.42114	1330.52515	1073.88013	1600.67041	1477.50476	1179.30225	1549.83582	1346.91492	1193.86035	1551.61841	1425.15552	1212.83533	1390.12976	1435.04944	1247.22839	1078.47974	1410.49353	1090.73010	1313.96118	1420.17517	1044.95117	1149.39197	1349.26367	1277.54858	1210.36694	1567.64294	1118.61230	1358.33923	1658.09229	1074.91370	1182.63782	1681.69556	1021.15143	1076.64758	1674.13013	921.01489	998.34515	1634.47644	830.12756	929.57581	1684.51343	845.83673	914.39032	1673.39063	773.30865	877.86517	1259.10583	1163.88904	1333.43945	1191.71533	1198.77051	1113.03235	1177.98901	1198.62463	999.52936	1174.56470	1203.71021	862.39307	1204.04089	1183.64099	761.49976	1166.73022	1224.25793	763.06812	1181.26648	1222.62170	687.25635	1550.86206	1082.43542	913.24152	1311.24463	1078.85339	916.44958	1493.11353	1243.73816	936.98083	1346.01477	1241.16956	938.76282	1600.89075	1195.65869	626.06598	1579.93164	1243.33521	450.64514	1585.05237	1387.19189	306.66614	1551.66992	1514.10339	136.92758	1515.31323	1566.15674	127.67825	1523.21851	1402.65186	33.46262	1268.24390	1049.37964	632.12170	1316.58459	968.59528	478.79749	1316.98816	959.12653	284.09171	1365.72644	928.79779	71.47547	1420.62329	968.20630	38.91161	1381.50842	788.06213	45.66040	1424.20557	1145.12927	1655.43115																								 
26	0.250	1462.20496	1040.21619	1599.53052	1330.78052	1059.96240	1601.93323	1477.56104	1166.01550	1551.21057	1346.92920	1180.25696	1553.12854	1424.50024	1199.15381	1390.94604	1434.80029	1232.14819	1078.97986	1410.27783	1076.74011	1315.43848	1419.69873	1030.45068	1150.86108	1348.32983	1262.95557	1210.81677	1567.55652	1105.73669	1359.42517	1658.19690	1063.26526	1183.24792	1682.02771	1010.14502	1077.16748	1673.77698	909.04089	1000.75793	1633.26453	816.81219	934.65387	1682.91589	832.30042	918.05756	1671.33411	758.68872	884.11407	1258.75806	1149.50586	1334.65308	1190.98840	1183.47144	1113.98108	1177.27380	1183.24561	1000.57928	1174.05933	1188.03760	863.38770	1204.32483	1168.43384	762.54572	1166.02466	1208.40173	764.05804	1180.83142	1206.77563	688.20599	1549.88391	1066.49500	913.68121	1310.46814	1063.14282	918.01709	1492.44458	1227.80969	937.05609	1345.16956	1225.23669	940.22345	1601.19250	1176.83398	625.34167	1582.35876	1222.69531	449.23407	1586.10364	1371.35388	309.79874	1551.34900	1504.08582	145.30087	1514.50708	1555.60266	139.82362	1522.99109	1401.43481	33.32463	1267.69080	1036.62634	632.53339	1315.85254	954.09039	479.54013	1315.92188	947.63000	284.85425	1365.36084	924.24762	71.60214	1419.61389	966.00989	40.38844	1380.00964	784.26764	42.41837																											 
27	0.260	1462.45264	1026.79797	1600.76672	1330.95386	1046.27600	1603.41150	1477.43689	1152.61536	1552.62366	1346.87488	1166.62927	1554.71472	1423.92395	1185.44788	1392.06702	1434.07715	1217.23889	1079.70520	1410.13208	1062.81226	1317.01367	1419.26855	1015.81281	1152.64832	1347.10632	1248.36121	1211.57898	1567.41492	1092.87219	1360.71289	1658.09949	1051.74182	1184.03149	1682.11218	999.44672	1077.74524	1673.40527	897.76031	1002.97089	1632.18652	804.49683	939.28394	1681.34119	819.80457	921.24335	1669.58923	745.46149	889.88715	1258.33716	1135.21240	1335.99084	1190.32068	1168.16418	1115.38989	1176.67969	1167.44641	1001.92719	1173.50610	1171.90588	864.74469	1203.77673	1151.96924	764.13824	1165.34497	1191.80750	765.29126	1180.18652	1189.96899	689.44324	1548.76477	1050.60168	914.41370	1309.72351	1047.57617	919.94495	1491.85046	1211.97571	937.36438	1344.44885	1209.46411	942.00031	1601.64514	1157.28552	624.52130	1585.12170	1200.55823	447.73999	1586.92957	1353.74597	312.85547	1551.15796	1492.38757	154.73369	1512.96448	1542.23792	152.56783	1522.66492	1399.89624	33.19333	1267.09595	1024.60767	632.67157	1315.38525	940.14886	480.07043	1315.05396	937.22437	285.34131	1365.93640	922.91876	71.69373	1419.91260	965.23444	40.70635	1378.95313	782.62311	40.47743	1424.69226	1118.41052	1658.78516																								 
28	0.270	1462.65527	1013.29889	1602.06677	1331.12415	1032.42371	1604.70239	1477.42456	1139.32336	1554.18567	1346.76196	1152.97913	1556.24463	1423.31860	1171.70605	1393.23743	1433.29077	1202.41772	1080.57825	1410.02319	1049.04810	1318.52466	1418.93591	1001.05243	1154.55420	1345.70667	1233.72229	1212.51343	1567.20874	1079.96912	1362.12354	1657.93921	1040.22021	1184.93823	1682.02002	989.08380	1078.41150	1672.88843	886.93127	1004.85199	1631.05420	792.96808	943.34552	1679.82642	807.98199	923.89551	1667.86096	732.92065	894.78351	1257.99915	1120.61743	1337.49561	1189.58838	1152.53333	1116.96008	1176.12927	1151.34888	1003.46802	1172.92407	1155.20911	866.28625	1203.64136	1135.00818	765.82275	1164.65759	1174.56311	766.80383	1179.56580	1172.46228	690.95233	1547.51245	1034.91956	915.32330	1308.97778	1032.28906	922.03247	1491.28125	1196.35693	937.82336	1343.83057	1194.01147	944.13220	1602.20410	1137.07861	623.64795	1587.82043	1177.13770	446.24030	1587.83850	1334.40002	315.93094	1550.59167	1477.60278	163.45978	1511.08765	1525.88904	165.53154	1522.15540	1398.60425	33.48285	1266.65759	1012.31268	633.10260	1315.28467	927.29431	480.43082	1314.68188	928.95172	285.22598	1367.04285	921.44958	72.00787	1420.20178	964.77722	40.89754	1381.11365	781.17694	39.37152	1424.18884	1104.32532	1660.62878																								 
29	0.280	1462.74377	999.85138	1603.41785	1331.18665	1018.78314	1606.01917	1477.42896	1125.99695	1555.83765	1346.64624	1139.36328	1557.73682	1422.79980	1158.11230	1394.32324	1432.48987	1187.66028	1081.46179	1409.99280	1035.20410	1319.97339	1418.67700	986.55206	1156.34387	1344.30701	1219.10400	1213.56226	1566.99121	1067.21973	1363.59424	1657.73743	1028.80579	1185.90063	1681.70752	979.03375	1078.96619	1672.26160	876.62042	1006.45190	1629.91577	782.01440	946.65259	1678.15613	796.90143	925.96954	1666.11975	721.27478	898.80023	1257.75195	1106.12048	1339.24207	1188.81567	1136.69446	1118.61963	1175.58435	1134.92188	1005.15247	1172.32202	1138.03687	867.95898	1203.40918	1117.44470	767.75604	1163.91785	1156.69104	768.39410	1178.79419	1153.98206	692.54730	1546.21594	1019.58209	916.26514	1308.19397	1017.31805	924.17401	1490.92175	1181.14563	938.49219	1343.45593	1178.94910	946.44159	1602.77588	1116.44202	622.58319	1589.80444	1152.58752	444.55542	1588.59595	1313.23767	318.87732	1550.58557	1460.29651	171.22495	1509.66663	1506.72534	178.44884	1520.27136	1397.79883	32.65409	1266.30469	998.69464	634.56897	1315.19043	915.90271	480.42624	1315.60632	922.41077	284.99521	1367.94568	920.35175	71.96815	1420.51416	964.49432	41.07570	1382.24829	780.24957	38.84147	1424.14197	1090.69739	1662.34949																								 
30	0.290	1462.81787	986.37549	1604.82751	1331.24927	1005.22559	1607.22717	1476.91370	1112.32654	1557.32288	1346.69263	1125.91357	1559.32922	1422.27246	1144.51050	1395.30957	1431.61755	1173.11902	1082.48438	1409.97681	1021.36615	1321.47253	1418.53223	972.18878	1158.06689	1342.95898	1204.51208	1214.71277	1566.74719	1054.46887	1365.00769	1657.47205	1017.48950	1186.76160	1681.32703	969.21136	1079.46606	1671.56714	866.65460	1007.65393	1628.75830	771.68237	949.37585	1676.49487	786.36053	927.47821	1664.23657	710.33417	901.67511	1257.52283	1091.50793	1341.05396	1188.09351	1120.71338	1120.30334	1175.10681	1118.12524	1006.77759	1171.66492	1120.46021	869.72791	1203.12134	1099.37732	769.69958	1163.20410	1138.18689	769.96375	1177.90417	1134.79834	694.13312	1544.98877	1004.54749	917.21729	1307.33838	1002.80603	926.19183	1490.77869	1166.39380	939.18884	1343.29993	1164.34326	948.72424	1603.16443	1095.63049	621.18542	1590.49670	1127.51978	442.73761	1588.48059	1290.39099	321.38431	1551.44482	1440.87231	177.58966	1509.86938	1485.81897	190.92490	1520.68359	1393.16431	35.11243	1265.84753	984.69208	636.86670	1315.15259	905.80157	480.37122	1315.79150	916.81854	284.79813	1368.09045	919.93115	72.16254	1420.62878	964.36908	41.15065	1382.07263	779.98114	38.54665																											 
